<mxfile host="app.diagrams.net" agent="Mozilla/5.0 (X11; Linux x86_64) AppleWebKit/537.36 (KHTML, like Gecko) Chrome/128.0.0.0 Safari/537.36" border="50" scale="3" compressed="false" locked="false" version="24.7.10">
  <diagram name="Blank" id="YmL12bMKpDGza6XwsDPr">
    <mxGraphModel dx="2182" dy="772" grid="0" gridSize="10" guides="1" tooltips="1" connect="1" arrows="1" fold="1" page="0" pageScale="1" pageWidth="827" pageHeight="1169" background="none" math="1" shadow="0">
      <root>
        <mxCell id="X5NqExCQtvZxIxQ7pmgY-0" />
        <mxCell id="1" parent="X5NqExCQtvZxIxQ7pmgY-0" />
        <mxCell id="J07pdDXDqe0SYwLNKbXz-2" value="PCB_0" style="sketch=0;outlineConnect=0;fontColor=#232F3E;gradientColor=none;fillColor=#ED7100;strokeColor=none;dashed=0;verticalLabelPosition=bottom;verticalAlign=top;align=center;html=1;fontSize=12;fontStyle=0;aspect=fixed;pointerEvents=1;shape=mxgraph.aws4.braket_embedded_simulator;" vertex="1" parent="1">
          <mxGeometry x="61" y="269" width="78" height="78" as="geometry" />
        </mxCell>
        <mxCell id="J07pdDXDqe0SYwLNKbXz-7" style="edgeStyle=orthogonalEdgeStyle;rounded=0;orthogonalLoop=1;jettySize=auto;html=1;entryX=0;entryY=0.5;entryDx=0;entryDy=0;endArrow=classic;endFill=1;startArrow=classic;startFill=1;" edge="1" parent="1" source="J07pdDXDqe0SYwLNKbXz-3" target="J07pdDXDqe0SYwLNKbXz-4">
          <mxGeometry relative="1" as="geometry" />
        </mxCell>
        <mxCell id="J07pdDXDqe0SYwLNKbXz-8" value="ROS2 Code trough Wireless LAN" style="edgeLabel;html=1;align=center;verticalAlign=middle;resizable=0;points=[];" vertex="1" connectable="0" parent="J07pdDXDqe0SYwLNKbXz-7">
          <mxGeometry x="-0.2329" y="-1" relative="1" as="geometry">
            <mxPoint x="28" y="-13" as="offset" />
          </mxGeometry>
        </mxCell>
        <mxCell id="J07pdDXDqe0SYwLNKbXz-3" value="Base Station" style="sketch=0;points=[[0,0,0],[0.25,0,0],[0.5,0,0],[0.75,0,0],[1,0,0],[0,1,0],[0.25,1,0],[0.5,1,0],[0.75,1,0],[1,1,0],[0,0.25,0],[0,0.5,0],[0,0.75,0],[1,0.25,0],[1,0.5,0],[1,0.75,0]];outlineConnect=0;fontColor=#232F3E;fillColor=#C925D1;strokeColor=#ffffff;dashed=0;verticalLabelPosition=bottom;verticalAlign=top;align=center;html=1;fontSize=12;fontStyle=0;aspect=fixed;shape=mxgraph.aws4.resourceIcon;resIcon=mxgraph.aws4.ground_station;" vertex="1" parent="1">
          <mxGeometry x="-579" y="376.5" width="121" height="121" as="geometry" />
        </mxCell>
        <mxCell id="J07pdDXDqe0SYwLNKbXz-9" style="edgeStyle=orthogonalEdgeStyle;rounded=0;orthogonalLoop=1;jettySize=auto;html=1;" edge="1" parent="1" source="J07pdDXDqe0SYwLNKbXz-4" target="J07pdDXDqe0SYwLNKbXz-2">
          <mxGeometry relative="1" as="geometry">
            <Array as="points">
              <mxPoint x="10" y="437" />
              <mxPoint x="10" y="311" />
            </Array>
          </mxGeometry>
        </mxCell>
        <mxCell id="J07pdDXDqe0SYwLNKbXz-10" style="edgeStyle=orthogonalEdgeStyle;rounded=0;orthogonalLoop=1;jettySize=auto;html=1;" edge="1" parent="1" source="J07pdDXDqe0SYwLNKbXz-4" target="J07pdDXDqe0SYwLNKbXz-5">
          <mxGeometry relative="1" as="geometry" />
        </mxCell>
        <mxCell id="J07pdDXDqe0SYwLNKbXz-11" style="edgeStyle=orthogonalEdgeStyle;rounded=0;orthogonalLoop=1;jettySize=auto;html=1;" edge="1" parent="1" source="J07pdDXDqe0SYwLNKbXz-4" target="J07pdDXDqe0SYwLNKbXz-6">
          <mxGeometry relative="1" as="geometry">
            <Array as="points">
              <mxPoint x="10" y="437" />
              <mxPoint x="10" y="566" />
            </Array>
          </mxGeometry>
        </mxCell>
        <mxCell id="J07pdDXDqe0SYwLNKbXz-13" value="CanBus Over custom protocol" style="edgeLabel;html=1;align=center;verticalAlign=middle;resizable=0;points=[];" vertex="1" connectable="0" parent="J07pdDXDqe0SYwLNKbXz-11">
          <mxGeometry x="-0.841" y="2" relative="1" as="geometry">
            <mxPoint x="62" y="-10" as="offset" />
          </mxGeometry>
        </mxCell>
        <mxCell id="J07pdDXDqe0SYwLNKbXz-4" value="Master Computing Unit" style="image;aspect=fixed;perimeter=ellipsePerimeter;html=1;align=center;fontSize=12;verticalAlign=top;fontColor=#364149;shadow=0;dashed=0;image=img/lib/cumulus/switch_bare_metal_empty.svg;" vertex="1" parent="1">
          <mxGeometry x="-258" y="425" width="96" height="24" as="geometry" />
        </mxCell>
        <mxCell id="J07pdDXDqe0SYwLNKbXz-5" value="PCB_1" style="sketch=0;outlineConnect=0;fontColor=#232F3E;gradientColor=none;fillColor=#ED7100;strokeColor=none;dashed=0;verticalLabelPosition=bottom;verticalAlign=top;align=center;html=1;fontSize=12;fontStyle=0;aspect=fixed;pointerEvents=1;shape=mxgraph.aws4.braket_embedded_simulator;" vertex="1" parent="1">
          <mxGeometry x="61" y="398" width="78" height="78" as="geometry" />
        </mxCell>
        <mxCell id="J07pdDXDqe0SYwLNKbXz-6" value="PCB_*" style="sketch=0;outlineConnect=0;fontColor=#232F3E;gradientColor=none;fillColor=#ED7100;strokeColor=none;dashed=0;verticalLabelPosition=bottom;verticalAlign=top;align=center;html=1;fontSize=12;fontStyle=0;aspect=fixed;pointerEvents=1;shape=mxgraph.aws4.braket_embedded_simulator;" vertex="1" parent="1">
          <mxGeometry x="61" y="527" width="78" height="78" as="geometry" />
        </mxCell>
      </root>
    </mxGraphModel>
  </diagram>
</mxfile>
